<svg width="26" height="34" viewBox="0 0 26 34" fill="none" xmlns="http://www.w3.org/2000/svg">
<path d="M11.0405 31.9539L11.0414 31.9552C11.9842 33.3482 14.0157 33.3483 14.9586 31.9553L14.9595 31.9539C16.4204 29.788 17.6788 27.9543 18.7593 26.3799C20.7334 23.5036 22.1135 21.4926 23.0489 19.9019C23.7849 18.6502 24.2822 17.6009 24.589 16.5412C24.898 15.4743 25 14.445 25 13.25C25 6.5058 19.6485 1 13 1C6.3515 1 1 6.5058 1 13.25C1 14.445 1.10201 15.4743 1.41096 16.5412C1.71781 17.6009 2.21508 18.6502 2.95112 19.9019C3.88647 21.4926 5.26663 23.5036 7.24069 26.3799C8.3212 27.9543 9.57964 29.788 11.0405 31.9539Z" fill="#0F52BA" stroke="white" stroke-width="2"/>
<path d="M16.3379 9.15634C16.6563 9.15634 16.9675 9.06378 17.2322 8.89037C17.4969 8.71696 17.7032 8.47048 17.8251 8.18211C17.9469 7.89374 17.9788 7.57642 17.9167 7.27029C17.8546 6.96415 17.7013 6.68295 17.4761 6.46224C17.251 6.24152 16.9642 6.09122 16.6519 6.03032C16.3397 5.96943 16.016 6.00068 15.7219 6.12013C15.4277 6.23958 15.1763 6.44186 14.9995 6.70139C14.8226 6.96092 14.7282 7.26604 14.7282 7.57817C14.7282 7.99673 14.8978 8.39814 15.1997 8.69411C15.5015 8.99007 15.911 9.15634 16.3379 9.15634ZM13.6819 18.1519C13.3593 18.566 12.9371 18.8954 12.4531 19.1106C11.969 19.3259 11.4382 19.4203 10.9078 19.3854C10.3775 19.3505 9.86428 19.1875 9.41389 18.9108C8.9635 18.6342 8.58998 18.2525 8.32667 17.7998C8.06336 17.3472 7.91845 16.8377 7.90488 16.3167C7.89131 15.7958 8.00949 15.2797 8.24888 14.8145C8.48828 14.3493 8.84143 13.9494 9.27683 13.6505C9.71223 13.3517 10.2163 13.1631 10.7441 13.1018C10.9576 13.0787 11.153 12.9735 11.2873 12.8093C11.4217 12.645 11.4839 12.4352 11.4604 12.2259C11.437 12.0166 11.3297 11.825 11.1621 11.6933C10.9946 11.5616 10.7805 11.5006 10.5671 11.5236C9.28628 11.5937 8.08638 12.1598 7.2313 13.0972C6.37622 14.0347 5.93602 15.2668 6.00753 16.5225C6.07904 17.7781 6.6564 18.9545 7.61261 19.7928C8.56882 20.6312 9.82554 21.0627 11.1063 20.9926C11.856 20.9926 12.5954 20.8215 13.266 20.4928C13.9365 20.1641 14.5198 19.6868 14.9696 19.0988C15.0977 18.9314 15.1527 18.7209 15.1225 18.5138C15.0923 18.3066 14.9794 18.1197 14.8087 17.9941C14.6379 17.8685 14.4232 17.8146 14.2119 17.8442C14.0006 17.8738 13.8099 17.9845 13.6819 18.1519ZM19.1549 19.4144H18.35V15.469C18.35 15.2597 18.2652 15.059 18.1143 14.9111C17.9634 14.7631 17.7586 14.6799 17.5452 14.6799H13.867L15.2272 11.0028V10.7582C15.2311 10.7109 15.2311 10.6634 15.2272 10.6161C15.2318 10.5663 15.2318 10.5161 15.2272 10.4662C15.2062 10.4199 15.182 10.3751 15.1548 10.3321C15.1306 10.289 15.1008 10.2493 15.0662 10.2137C15.0317 10.1736 14.9909 10.139 14.9455 10.1111C14.9455 10.1111 14.9455 10.0638 14.8811 10.048L11.2753 8.01217H11.1787C11.1294 7.99171 11.0782 7.97586 11.0258 7.96482H10.7039C10.648 7.97616 10.5938 7.99473 10.5429 8.02006H10.4544L8.2893 9.25892C8.13543 9.34439 8.01455 9.47716 7.94534 9.63671C7.87614 9.79627 7.86247 9.97374 7.90644 10.1417C7.95041 10.3096 8.04957 10.4587 8.1886 10.5658C8.32764 10.673 8.4988 10.7323 8.67564 10.7345C8.82207 10.7383 8.96677 10.7028 9.09416 10.6319L10.889 9.60612L13.4967 11.0896L11.9756 15.2007C11.9716 15.2427 11.9716 15.285 11.9756 15.327C11.968 15.374 11.968 15.422 11.9756 15.469C11.9904 15.5702 12.0119 15.6704 12.0399 15.7689L12.1285 15.8872C12.1504 15.934 12.1804 15.9767 12.217 16.0135C12.2514 16.0417 12.2893 16.0655 12.3297 16.0845C12.3776 16.1206 12.4288 16.1523 12.4826 16.1792C12.5703 16.2104 12.6629 16.2264 12.7563 16.2265H16.7806V20.172C16.7806 20.3812 16.8654 20.582 17.0163 20.7299C17.1672 20.8779 17.372 20.9611 17.5854 20.9611H19.1951C19.4086 20.9611 19.6133 20.8779 19.7643 20.7299C19.9152 20.582 20 20.3812 20 20.172C20 19.9627 19.9152 19.762 19.7643 19.614C19.6133 19.466 19.4086 19.3829 19.1951 19.3829L19.1549 19.4144Z" fill="white"/>
</svg>
