<svg width="26" height="34" viewBox="0 0 26 34" fill="none" xmlns="http://www.w3.org/2000/svg">
<path d="M11.0405 31.9539L11.0414 31.9552C11.9842 33.3482 14.0157 33.3483 14.9586 31.9553L14.9595 31.9539C16.4204 29.788 17.6788 27.9543 18.7593 26.3799C20.7334 23.5036 22.1135 21.4926 23.0489 19.9019C23.7849 18.6502 24.2822 17.6009 24.589 16.5412C24.898 15.4743 25 14.445 25 13.25C25 6.5058 19.6485 1 13 1C6.3515 1 1 6.5058 1 13.25C1 14.445 1.10201 15.4743 1.41096 16.5412C1.71781 17.6009 2.21508 18.6502 2.95112 19.9019C3.88647 21.4926 5.26663 23.5036 7.24069 26.3799C8.3212 27.9543 9.57964 29.788 11.0405 31.9539Z" fill="#314057" stroke="white" stroke-width="2"/>
<path d="M21.2207 9.54803C21.1858 9.32601 21.0842 9.11986 20.9294 8.95692C20.7746 8.79397 20.5739 8.68193 20.354 8.63564L17.6761 8.04715C17.3889 7.98452 17.0916 7.98428 16.8044 8.04646C16.5171 8.10863 16.2465 8.23177 16.011 8.40754L8.09599 14.1738L5.87888 14.0826C5.70065 14.0762 5.52494 14.1262 5.37671 14.2253C5.22848 14.3245 5.11526 14.4679 5.05314 14.635C4.99102 14.8022 4.98315 14.9847 5.03065 15.1566C5.07815 15.3285 5.17861 15.4811 5.31776 15.5926L7.59873 17.3855C7.87245 17.7185 8.05493 17.6546 12.5849 15.1866L13.0092 19.484C13.0163 19.6012 13.0565 19.714 13.1251 19.8093C13.1937 19.9046 13.288 19.9784 13.397 20.0223C13.4754 20.0533 13.559 20.0687 13.6433 20.0679C13.813 20.0627 13.975 19.9963 14.0995 19.8809L15.1898 18.8863C15.2984 18.7858 15.3719 18.6531 15.3997 18.5077L16.3987 13.079C18.0274 12.1666 19.5693 11.3089 20.6687 10.684C20.8654 10.5733 21.0237 10.4053 21.1223 10.2023C21.2209 9.9993 21.2553 9.77105 21.2207 9.54803ZM20.2171 9.89018C19.0766 10.538 17.4799 11.4458 15.7646 12.3856L15.5776 12.4905L14.5147 18.2705L13.844 18.8818L13.3422 13.7268L12.7355 14.037C9.46457 15.8618 8.37426 16.391 8.00018 16.5552L6.03855 14.9996L8.35602 15.0999L16.5675 9.14202C16.6966 9.04552 16.8446 8.97735 17.0018 8.94198C17.159 8.9066 17.322 8.90481 17.4799 8.93673L20.1487 9.51153C20.1898 9.51899 20.2275 9.53939 20.2562 9.56975C20.2849 9.60011 20.3032 9.63885 20.3083 9.68033C20.3177 9.72047 20.3139 9.76256 20.2975 9.80037C20.281 9.83817 20.2529 9.86967 20.2171 9.89018Z" fill="white"/>
<path d="M8.09604 11.5472L9.72009 12.0034L10.4683 11.4606L8.64347 10.9314L9.46462 10.4296L11.96 10.3566L13.0093 9.59473L9.46462 9.70421C9.35287 9.69817 9.24182 9.72514 9.14529 9.78177L7.94549 10.4797C7.8463 10.5385 7.76672 10.6253 7.71679 10.7292C7.66686 10.8331 7.6488 10.9495 7.6649 11.0637C7.681 11.1778 7.73053 11.2847 7.80726 11.3707C7.88398 11.4568 7.98446 11.5182 8.09604 11.5472Z" fill="white"/>
</svg>
