<svg width="26" height="34" viewBox="0 0 26 34" fill="none" xmlns="http://www.w3.org/2000/svg">
<path d="M11.0405 31.9539L11.0414 31.9552C11.9842 33.3482 14.0157 33.3483 14.9586 31.9553L14.9595 31.9539C16.4204 29.788 17.6788 27.9543 18.7593 26.3799C20.7334 23.5036 22.1135 21.4926 23.0489 19.9019C23.7849 18.6502 24.2822 17.6009 24.589 16.5412C24.898 15.4743 25 14.445 25 13.25C25 6.5058 19.6485 1 13 1C6.3515 1 1 6.5058 1 13.25C1 14.445 1.10201 15.4743 1.41096 16.5412C1.71781 17.6009 2.21508 18.6502 2.95112 19.9019C3.88647 21.4926 5.26663 23.5036 7.24069 26.3799C8.3212 27.9543 9.57964 29.788 11.0405 31.9539Z" fill="#314057" stroke="white" stroke-width="2"/>
<path fill-rule="evenodd" clip-rule="evenodd" d="M12.9167 6C12.6072 6 12.3105 6.12451 12.0917 6.34615C11.8729 6.56778 11.75 6.86838 11.75 7.18182C11.75 7.49526 11.8729 7.79586 12.0917 8.01749C12.3105 8.23912 12.6072 8.36364 12.9167 8.36364H13.5C13.8094 8.36364 14.1062 8.23912 14.325 8.01749C14.5437 7.79586 14.6667 7.49526 14.6667 7.18182C14.6667 6.86838 14.5437 6.56778 14.325 6.34615C14.1062 6.12451 13.8094 6 13.5 6H12.9167ZM11.1667 10.7273C10.8572 10.7273 10.5605 10.8518 10.3417 11.0734C10.1229 11.2951 10 11.5957 10 11.9091C10 12.2225 10.1229 12.5231 10.3417 12.7448C10.5605 12.9664 10.8572 13.0909 11.1667 13.0909H12.3333V16.6364H11.1667C10.8572 16.6364 10.5605 16.7609 10.3417 16.9825C10.1229 17.2041 10 17.5047 10 17.8182C10 18.1316 10.1229 18.4322 10.3417 18.6539C10.5605 18.8755 10.8572 19 11.1667 19H15.8333C16.1428 19 16.4395 18.8755 16.6583 18.6539C16.8771 18.4322 17 18.1316 17 17.8182C17 17.5047 16.8771 17.2041 16.6583 16.9825C16.4395 16.7609 16.1428 16.6364 15.8333 16.6364H14.6667V11.9091C14.6667 11.5957 14.5437 11.2951 14.325 11.0734C14.1062 10.8518 13.8094 10.7273 13.5 10.7273H11.1667Z" fill="white"/>
</svg>
