<svg width="28" height="35" viewBox="0 0 28 35" fill="none" xmlns="http://www.w3.org/2000/svg">
<path d="M12.0405 32.9539L12.0414 32.9552C12.9842 34.3482 15.0157 34.3483 15.9586 32.9553L15.9595 32.9539C17.4204 30.788 18.6788 28.9543 19.7593 27.3799C21.7334 24.5036 23.1135 22.4926 24.0489 20.9019C24.7849 19.6502 25.2822 18.6009 25.589 17.5412C25.898 16.4743 26 15.445 26 14.25C26 7.5058 20.6485 2 14 2C7.3515 2 2 7.5058 2 14.25C2 15.445 2.10201 16.4743 2.41096 17.5412C2.71781 18.6009 3.21508 19.6502 3.95112 20.9019C4.88647 22.4926 6.26663 24.5036 8.24069 27.3799C9.3212 28.9543 10.5796 30.788 12.0405 32.9539Z" fill="#0F52BA" stroke="white" stroke-width="2"/>
<path d="M17.524 7.95431C15.9217 7.01917 14.0137 6.75836 12.2192 7.22919C10.4247 7.70001 8.89048 8.86396 7.95366 10.4653C7.48946 11.2587 7.18608 12.1358 7.06086 13.0465C6.93563 13.9572 6.99101 14.8836 7.22382 15.7729C7.45664 16.6622 7.86233 17.4969 8.41774 18.2294C8.97315 18.9619 9.6674 19.5778 10.4609 20.042C11.2543 20.5062 12.1314 20.8096 13.0421 20.9348C13.9528 21.06 14.8793 21.0046 15.7685 20.7717C16.6578 20.5389 17.4925 20.1332 18.225 19.5778C18.9575 19.0224 19.5734 18.3281 20.0376 17.5346C20.9751 15.9322 21.2375 14.0231 20.7674 12.2271C20.2972 10.4312 19.1328 8.89558 17.5304 7.95811C17.5283 7.95684 17.5262 7.95558 17.524 7.95431ZM17.4308 8.8213C18.004 9.3021 18.3056 10.1825 18.2756 11.3329C18.266 11.7039 18.2198 12.0993 18.1396 12.5105L16.0036 11.2609L17.4308 8.8213ZM16.8128 8.49171L15.3992 10.9073L13.3752 9.7233C13.6942 9.4519 14.0164 9.2177 14.3348 9.0277C15.265 8.47251 16.1302 8.29111 16.8124 8.49171H16.8128ZM15.3248 7.84091C14.8778 7.96091 14.4228 8.15991 13.9762 8.42651C13.5576 8.6765 13.1414 8.9869 12.7366 9.3495L11.1106 8.39831C12.4086 7.73009 13.8982 7.53308 15.3252 7.84091H15.3248ZM18.8462 9.97609C19.7332 11.0467 20.2416 12.3805 20.2922 13.7699L18.7774 12.8837C18.8956 12.3533 18.9628 11.8385 18.9754 11.3511C18.9882 10.8647 18.9454 10.4011 18.8462 9.97609ZM10.4247 8.8079L12.214 9.85469C11.6986 10.3905 11.2106 11.0127 10.772 11.7087L8.74326 10.5217C9.18809 9.84739 9.75902 9.2654 10.4247 8.8077V8.8079ZM12.8382 10.2199L15.046 11.5115L13.8702 13.5213L11.377 12.0625C11.8222 11.3605 12.3198 10.7401 12.8382 10.2199ZM15.6502 11.8651L17.9696 13.2221C17.7704 13.9289 17.4736 14.6667 17.0796 15.3986L14.4744 13.8747L15.6502 11.8651ZM18.5932 13.5869L20.2716 14.5687C20.1988 15.3731 19.9712 16.1559 19.6014 16.874L17.683 15.7518C18.0748 15.0286 18.3784 14.2985 18.5932 13.5869ZM8.38986 11.1259L10.4153 12.3109C10.0169 13.0277 9.70485 13.7529 9.48065 14.4615L7.71966 13.4315C7.79247 12.6269 8.02004 11.8441 8.38986 11.1259ZM11.0194 12.6645L13.5168 14.1255L12.341 16.135L10.1031 14.8258C10.3133 14.1215 10.6183 13.3891 11.0194 12.6645ZM14.121 14.4789L16.73 16.0052C16.295 16.7102 15.806 17.3348 15.295 17.8632L12.9452 16.4884L14.121 14.4789ZM17.3324 16.3576L19.2478 17.4782C18.803 18.1525 18.2322 18.7345 17.5666 19.1922L15.9166 18.2268C16.4242 17.684 16.9028 17.056 17.3324 16.3576ZM7.69906 14.2303L9.28645 15.1588C9.14766 15.7402 9.07046 16.3042 9.05686 16.8354C9.04586 17.2524 9.07626 17.6526 9.14725 18.0264C8.25899 16.9554 7.74982 15.6207 7.69906 14.2303ZM9.92185 15.5306L11.9876 16.7392L10.5175 19.2522C10.4815 19.2284 10.4469 19.2032 10.4115 19.1788C9.96265 18.6732 9.73025 17.8688 9.75665 16.8536C9.76745 16.4392 9.82265 15.994 9.92185 15.5306ZM12.5918 17.0926L14.7694 18.3666C14.414 18.6802 14.0532 18.9464 13.6972 19.1588C12.8428 19.6688 12.0432 19.8634 11.39 19.7366C11.3 19.6954 11.2104 19.6514 11.1216 19.6058L12.5918 17.0926ZM15.4044 18.7382L16.8804 19.6016C15.7069 20.2055 14.3736 20.4262 13.068 20.2326C13.4118 20.1071 13.7426 19.9488 14.056 19.76C14.5122 19.4878 14.966 19.1442 15.4044 18.7382Z" fill="white"/>
</svg>
