<svg width="26" height="34" viewBox="0 0 26 34" fill="none" xmlns="http://www.w3.org/2000/svg">
<path d="M11.0405 31.9539L11.0414 31.9552C11.9842 33.3482 14.0157 33.3483 14.9586 31.9553L14.9595 31.9539C16.4204 29.788 17.6788 27.9543 18.7593 26.3799C20.7334 23.5036 22.1135 21.4926 23.0489 19.9019C23.7849 18.6502 24.2822 17.6009 24.589 16.5412C24.898 15.4743 25 14.445 25 13.25C25 6.5058 19.6485 1 13 1C6.3515 1 1 6.5058 1 13.25C1 14.445 1.10201 15.4743 1.41096 16.5412C1.71781 17.6009 2.21508 18.6502 2.95112 19.9019C3.88647 21.4926 5.26663 23.5036 7.24069 26.3799C8.3212 27.9543 9.57964 29.788 11.0405 31.9539Z" fill="#01796F" stroke="white" stroke-width="2"/>
<path d="M20.6 17.375H19.983L13.9885 8.98978L15.3238 7.12231C15.4535 6.94077 15.414 6.68661 15.2353 6.55483L14.5878 6.07774C14.409 5.94597 14.159 5.98608 14.029 6.16788L13 7.60727L11.9707 6.16762C11.841 5.98608 11.5908 5.94571 11.412 6.07749L10.765 6.55483C10.5863 6.68661 10.5465 6.94077 10.6765 7.12231L12.0118 8.98978L6.017 17.375H5.4C5.179 17.375 5 17.5568 5 17.7813V18.5938C5 18.8182 5.179 19 5.4 19H20.6C20.821 19 21 18.8182 21 18.5938V17.7813C21 17.5568 20.821 17.375 20.6 17.375ZM13 13.3125L15.909 17.375H10.091L13 13.3125Z" fill="white"/>
</svg>
