<svg width="26" height="34" viewBox="0 0 26 34" fill="none" xmlns="http://www.w3.org/2000/svg">
<path d="M11.0405 31.9539L11.0414 31.9552C11.9842 33.3482 14.0157 33.3483 14.9586 31.9553L14.9595 31.9539C16.4204 29.788 17.6788 27.9543 18.7593 26.3799C20.7334 23.5036 22.1135 21.4926 23.0489 19.9019C23.7849 18.6502 24.2822 17.6009 24.589 16.5412C24.898 15.4743 25 14.445 25 13.25C25 6.5058 19.6485 1 13 1C6.3515 1 1 6.5058 1 13.25C1 14.445 1.10201 15.4743 1.41096 16.5412C1.71781 17.6009 2.21508 18.6502 2.95112 19.9019C3.88647 21.4926 5.26663 23.5036 7.24069 26.3799C8.3212 27.9543 9.57964 29.788 11.0405 31.9539Z" fill="#008C60" stroke="white" stroke-width="2"/>
<path d="M12.4427 19.61V18.07C11.8267 18.0233 11.2434 17.9113 10.6927 17.734C10.1514 17.5473 9.68007 17.2907 9.27873 16.964L9.82473 15.55C10.2634 15.8767 10.7441 16.1287 11.2667 16.306C11.7894 16.4833 12.3634 16.572 12.9887 16.572C13.6701 16.572 14.1694 16.4507 14.4867 16.208C14.8041 15.9653 14.9627 15.662 14.9627 15.298C14.9627 14.9713 14.8554 14.71 14.6407 14.514C14.4261 14.318 14.0434 14.1593 13.4927 14.038L12.0087 13.716C11.1687 13.5293 10.5341 13.2213 10.1047 12.792C9.68473 12.3533 9.47473 11.7747 9.47473 11.056C9.47473 10.272 9.74073 9.614 10.2727 9.082C10.8141 8.54067 11.5374 8.214 12.4427 8.102V6.52H13.8427V8.088C14.3281 8.13467 14.7994 8.25133 15.2567 8.438C15.7141 8.62467 16.1014 8.87667 16.4187 9.194L15.8867 10.538C15.1774 9.88467 14.2721 9.558 13.1707 9.558C12.5921 9.558 12.1254 9.69333 11.7707 9.964C11.4254 10.2253 11.2527 10.5707 11.2527 11C11.2527 11.3173 11.3601 11.574 11.5747 11.77C11.7894 11.966 12.1347 12.1153 12.6107 12.218L14.0947 12.54C14.9907 12.736 15.6534 13.0487 16.0827 13.478C16.5214 13.898 16.7407 14.458 16.7407 15.158C16.7407 15.942 16.4701 16.586 15.9287 17.09C15.3967 17.5847 14.7014 17.8973 13.8427 18.028V19.61H12.4427Z" fill="white"/>
</svg>
