<svg width="26" height="34" viewBox="0 0 26 34" fill="none" xmlns="http://www.w3.org/2000/svg">
<path d="M11.0405 31.9539L11.0414 31.9552C11.9842 33.3482 14.0157 33.3483 14.9586 31.9553L14.9595 31.9539C16.4204 29.788 17.6788 27.9543 18.7593 26.3799C20.7334 23.5036 22.1135 21.4926 23.0489 19.9019C23.7849 18.6502 24.2822 17.6009 24.589 16.5412C24.898 15.4743 25 14.445 25 13.25C25 6.5058 19.6485 1 13 1C6.3515 1 1 6.5058 1 13.25C1 14.445 1.10201 15.4743 1.41096 16.5412C1.71781 17.6009 2.21508 18.6502 2.95112 19.9019C3.88647 21.4926 5.26663 23.5036 7.24069 26.3799C8.3212 27.9543 9.57964 29.788 11.0405 31.9539Z" fill="#F09236" stroke="white" stroke-width="2"/>
</svg>
