<svg width="26" height="34" viewBox="0 0 26 34" fill="none" xmlns="http://www.w3.org/2000/svg">
<path d="M11.0405 31.9539L11.0414 31.9552C11.9842 33.3482 14.0157 33.3483 14.9586 31.9553L14.9595 31.9539C16.4204 29.788 17.6788 27.9543 18.7593 26.3799C20.7334 23.5036 22.1135 21.4926 23.0489 19.9019C23.7849 18.6502 24.2822 17.6009 24.589 16.5412C24.898 15.4743 25 14.445 25 13.25C25 6.5058 19.6485 1 13 1C6.3515 1 1 6.5058 1 13.25C1 14.445 1.10201 15.4743 1.41096 16.5412C1.71781 17.6009 2.21508 18.6502 2.95112 19.9019C3.88647 21.4926 5.26663 23.5036 7.24069 26.3799C8.3212 27.9543 9.57964 29.788 11.0405 31.9539Z" fill="#0F52BA" stroke="white" stroke-width="2"/>
<path d="M13.1448 6.0278L12.9966 6L12.8483 6.02698C10.984 6.36727 9.29154 7.32627 8.04852 8.74672C6.8055 10.1672 6.0857 11.9647 6.00718 13.8445C5.92866 15.7244 6.49608 17.5749 7.61638 19.0926C8.73668 20.6103 10.3433 21.705 12.1729 22.1973V23.1824C12.1729 23.3993 12.2597 23.6072 12.4141 23.7605C12.5686 23.9139 12.7781 24 12.9966 24C13.215 24 13.4245 23.9139 13.579 23.7605C13.7335 23.6072 13.8202 23.3993 13.8202 23.1824V22.1973C15.6513 21.7067 17.2597 20.6126 18.3814 19.0947C19.5031 17.5769 20.0714 15.7255 19.9928 13.8446C19.9143 11.9638 19.1936 10.1655 17.9491 8.74495C16.7047 7.32444 15.0105 6.36625 13.1448 6.0278ZM13.8202 20.4845V10.9192C13.8202 10.7024 13.7335 10.4944 13.579 10.3411C13.4245 10.1878 13.215 10.1016 12.9966 10.1016C12.7781 10.1016 12.5686 10.1878 12.4141 10.3411C12.2597 10.4944 12.1729 10.7024 12.1729 10.9192V20.4845C10.8809 20.0436 9.75541 19.2215 8.94724 18.1281C8.13906 17.0347 7.68674 15.7224 7.65085 14.3668L10.2347 16.9315C10.2729 16.9696 10.3182 16.9999 10.3682 17.0205C10.4182 17.0412 10.4718 17.0518 10.5259 17.0518C10.5801 17.0518 10.6337 17.0412 10.6836 17.0205C10.7336 16.9999 10.779 16.9696 10.8171 16.9315C10.8943 16.8548 10.9377 16.7509 10.9377 16.6425C10.9377 16.5341 10.8943 16.4301 10.8171 16.3535L7.71262 13.2721C7.82004 12.4974 8.06459 11.7476 8.435 11.0574L10.2339 12.8437C10.3114 12.9202 10.4162 12.9631 10.5255 12.9631C10.6348 12.9631 10.7396 12.9202 10.8171 12.8437C10.8943 12.7671 10.9377 12.6631 10.9377 12.5547C10.9377 12.4463 10.8943 12.3424 10.8171 12.2657L8.87896 10.342C9.85936 8.96314 11.3314 8.00594 12.9966 7.66453C14.6615 8.00656 16.1333 8.96362 17.1142 10.342L15.176 12.2657C15.0988 12.3425 15.0555 12.4465 15.0555 12.555C15.0556 12.6635 15.0991 12.7675 15.1764 12.8441C15.2538 12.9208 15.3586 12.9638 15.4679 12.9637C15.5772 12.9636 15.682 12.9205 15.7592 12.8437L17.5581 11.0574C17.9238 11.7376 18.1709 12.484 18.2805 13.2721L15.176 16.3535C15.0988 16.4302 15.0555 16.5343 15.0555 16.6427C15.0556 16.7512 15.0991 16.8552 15.1764 16.9319C15.2538 17.0085 15.3586 17.0515 15.4679 17.0515C15.5772 17.0514 15.682 17.0082 15.7592 16.9315L18.3431 14.3668C18.3069 15.7224 17.8544 17.0348 17.0461 18.1281C16.2378 19.2214 15.1123 20.0436 13.8202 20.4845Z" fill="white"/>
</svg>
