<svg width="27" height="35" viewBox="0 0 27 35" fill="none" xmlns="http://www.w3.org/2000/svg">
<path d="M11.1069 32.0159L11.1078 32.0173C12.0506 33.4102 14.0821 33.4103 15.025 32.0173L15.0259 32.0159C16.4868 29.85 17.7452 28.0163 18.8257 26.4419C20.7998 23.5656 22.1799 21.5546 23.1153 19.9639C23.8513 18.7123 24.3486 17.6629 24.6554 16.6032C24.9644 15.5363 25.0664 14.507 25.0664 13.312C25.0664 6.56781 19.7149 1.06201 13.0664 1.06201C6.4179 1.06201 1.06641 6.56781 1.06641 13.312C1.06641 14.507 1.16842 15.5363 1.47736 16.6032C1.78421 17.6629 2.28148 18.7123 3.01752 19.9639C3.95288 21.5546 5.33304 23.5656 7.3071 26.442C8.38761 28.0164 9.64605 29.85 11.1069 32.0159Z" fill="#0F52BA" stroke="white" stroke-width="2"/>
<path d="M12.8343 19.12C12.2583 19.12 11.7063 19.036 11.1783 18.868C10.6583 18.692 10.2263 18.456 9.88234 18.16L10.3863 16.984C11.1063 17.544 11.9063 17.824 12.7863 17.824C13.8663 17.824 14.4063 17.4 14.4063 16.552C14.4063 16.152 14.2703 15.856 13.9983 15.664C13.7343 15.464 13.3463 15.364 12.8343 15.364H11.4783V14.092H12.6903C13.1383 14.092 13.4943 13.984 13.7583 13.768C14.0223 13.544 14.1543 13.236 14.1543 12.844C14.1543 12.476 14.0303 12.196 13.7823 12.004C13.5423 11.812 13.1903 11.716 12.7263 11.716C11.8943 11.716 11.1623 12.004 10.5303 12.58L10.0263 11.428C10.3623 11.108 10.7823 10.86 11.2863 10.684C11.7903 10.508 12.3143 10.42 12.8583 10.42C13.7383 10.42 14.4223 10.62 14.9103 11.02C15.3983 11.412 15.6423 11.96 15.6423 12.664C15.6423 13.12 15.5263 13.52 15.2943 13.864C15.0623 14.208 14.7463 14.456 14.3463 14.608C14.8343 14.744 15.2143 14.996 15.4863 15.364C15.7583 15.724 15.8943 16.164 15.8943 16.684C15.8943 17.436 15.6223 18.032 15.0783 18.472C14.5343 18.904 13.7863 19.12 12.8343 19.12Z" fill="white"/>
</svg>
