<svg width="27" height="34" viewBox="0 0 27 34" fill="none" xmlns="http://www.w3.org/2000/svg">
<path d="M11.1069 31.9539L11.1078 31.9552C12.0506 33.3482 14.0821 33.3483 15.025 31.9553L15.0259 31.9539C16.4868 29.788 17.7452 27.9543 18.8257 26.3799C20.7998 23.5036 22.1799 21.4926 23.1153 19.9019C23.8513 18.6502 24.3486 17.6009 24.6554 16.5412C24.9644 15.4743 25.0664 14.445 25.0664 13.25C25.0664 6.5058 19.7149 1 13.0664 1C6.4179 1 1.06641 6.5058 1.06641 13.25C1.06641 14.445 1.16842 15.4743 1.47736 16.5412C1.78421 17.6009 2.28148 18.6502 3.01752 19.9019C3.95288 21.4926 5.33304 23.5036 7.3071 26.3799C8.38761 27.9543 9.64605 29.788 11.1069 31.9539Z" fill="#0F52BA" stroke="white" stroke-width="2"/>
<path d="M10.3623 18V16.86L13.0983 13.944C13.4663 13.544 13.7303 13.192 13.8903 12.888C14.0503 12.576 14.1303 12.26 14.1303 11.94C14.1303 11.124 13.6383 10.716 12.6543 10.716C11.8863 10.716 11.1783 11.004 10.5303 11.58L10.0143 10.428C10.3503 10.124 10.7703 9.88 11.2743 9.696C11.7783 9.512 12.3023 9.42 12.8463 9.42C13.7503 9.42 14.4423 9.624 14.9223 10.032C15.4103 10.44 15.6543 11.024 15.6543 11.784C15.6543 12.296 15.5303 12.788 15.2823 13.26C15.0423 13.732 14.6623 14.24 14.1423 14.784L12.2823 16.728H15.9783V18H10.3623Z" fill="white"/>
</svg>
