<svg width="27" height="35" viewBox="0 0 27 35" fill="none" xmlns="http://www.w3.org/2000/svg">
<path d="M11.1069 32.0159L11.1078 32.0173C12.0506 33.4102 14.0821 33.4103 15.025 32.0173L15.0259 32.0159C16.4868 29.85 17.7452 28.0163 18.8257 26.4419C20.7998 23.5656 22.1799 21.5546 23.1153 19.9639C23.8513 18.7123 24.3486 17.6629 24.6554 16.6032C24.9644 15.5363 25.0664 14.507 25.0664 13.312C25.0664 6.56781 19.7149 1.06201 13.0664 1.06201C6.4179 1.06201 1.06641 6.56781 1.06641 13.312C1.06641 14.507 1.16842 15.5363 1.47736 16.6032C1.78421 17.6629 2.28148 18.7123 3.01752 19.9639C3.95288 21.5546 5.33304 23.5656 7.3071 26.442C8.38761 28.0164 9.64605 29.85 11.1069 32.0159Z" fill="#0F52BA" stroke="white" stroke-width="2"/>
</svg>
