<svg width="26" height="34" viewBox="0 0 26 34" fill="none" xmlns="http://www.w3.org/2000/svg">
<path d="M11.0405 31.9539L11.0414 31.9552C11.9842 33.3482 14.0157 33.3483 14.9586 31.9553L14.9595 31.9539C16.4204 29.788 17.6788 27.9543 18.7593 26.3799C20.7334 23.5036 22.1135 21.4926 23.0489 19.9019C23.7849 18.6502 24.2822 17.6009 24.589 16.5412C24.898 15.4743 25 14.445 25 13.25C25 6.5058 19.6485 1 13 1C6.3515 1 1 6.5058 1 13.25C1 14.445 1.10201 15.4743 1.41096 16.5412C1.71781 17.6009 2.21508 18.6502 2.95112 19.9019C3.88647 21.4926 5.26663 23.5036 7.24069 26.3799C8.3212 27.9543 9.57964 29.788 11.0405 31.9539Z" fill="#314057" stroke="white" stroke-width="2"/>
<path d="M18.9217 18.7356C18.8555 18.6326 18.7712 18.566 18.6567 18.5478C18.5896 18.5287 18.5188 18.5265 18.4505 18.5412C18.3823 18.556 18.3187 18.5874 18.2653 18.6326C18.0545 18.8144 17.8197 18.9537 17.5426 19.0325C17.2716 19.1173 16.9886 19.1173 16.6875 19.0567L16.013 18.8871L15.3867 15.1549L13.4235 13.5373L14.4834 11.8106C14.8327 12.3619 15.2964 12.8042 15.8865 13.1435C16.4767 13.4828 17.1211 13.6645 17.8136 13.6645V12.4346C17.2476 12.4346 16.7477 12.2831 16.3081 11.9802C15.8685 11.6773 15.5433 11.2835 15.3385 10.7927L15.0013 10.0596C14.9411 9.9445 14.8327 9.81121 14.6761 9.65975C14.5135 9.50828 14.2967 9.42346 14.0136 9.42346H10.6111L9.08751 11.8469L10.1293 12.4891L11.2555 10.6352H12.6767L11.1712 13.0284C10.9845 13.3131 10.9303 13.6221 11.0026 13.9674L11.5084 16.0577L9.40067 17.4754L9.11762 17.4148C8.83979 17.3623 8.57914 17.2416 8.35883 17.0634C8.13601 16.8817 7.96739 16.6696 7.85899 16.4273C7.79877 16.2758 7.69639 16.191 7.55788 16.1728C7.41335 16.1364 7.29291 16.1546 7.19053 16.2273C7.08815 16.3 7.02793 16.3909 7.00987 16.5121C6.9918 16.603 6.99782 16.6938 7.03395 16.7968C7.2086 17.1725 7.45551 17.4996 7.7807 17.7723C8.11192 18.0449 8.49132 18.2085 8.92491 18.2933L16.5189 19.9352C16.9525 20.0261 17.368 20.0261 17.7715 19.9049C18.175 19.7959 18.5363 19.5959 18.8555 19.3112C18.9277 19.2566 18.9759 19.1839 19 19.087C19 18.9537 19 18.8386 18.9217 18.7356ZM11.0327 17.8389L12.8634 16.6272L12.5804 14.6157L14.2967 15.8335L14.7484 18.6326L11.0327 17.8389ZM16.5911 8.21173C16.5911 8.88424 16.0552 9.42346 15.3867 9.42346C14.7182 9.42346 14.1823 8.88424 14.1823 8.21173C14.1823 7.53922 14.7243 7 15.3867 7C16.0491 7 16.5911 7.54528 16.5911 8.21173Z" fill="white"/>
</svg>
