<svg width="26" height="34" viewBox="0 0 26 34" fill="none" xmlns="http://www.w3.org/2000/svg">
<path d="M11.0405 31.9539L11.0414 31.9552C11.9842 33.3482 14.0157 33.3483 14.9586 31.9553L14.9595 31.9539C16.4204 29.788 17.6788 27.9543 18.7593 26.3799C20.7334 23.5036 22.1135 21.4926 23.0489 19.9019C23.7849 18.6502 24.2822 17.6009 24.589 16.5412C24.898 15.4743 25 14.445 25 13.25C25 6.5058 19.6485 1 13 1C6.3515 1 1 6.5058 1 13.25C1 14.445 1.10201 15.4743 1.41096 16.5412C1.71781 17.6009 2.21508 18.6502 2.95112 19.9019C3.88647 21.4926 5.26663 23.5036 7.24069 26.3799C8.3212 27.9543 9.57964 29.788 11.0405 31.9539Z" fill="#115E59" stroke="white" stroke-width="2"/>
<path d="M18.7037 8.69231H16.5L15.975 7.32033C15.9387 7.22645 15.8723 7.1453 15.7847 7.08797C15.6971 7.03063 15.5927 6.99991 15.4856 7H10.5144C10.2956 7 10.0995 7.12843 10.0266 7.32033L9.5 8.69231H7.2963C6.58009 8.69231 6 9.23324 6 9.9011V16.7912C6 17.4591 6.58009 18 7.2963 18H18.7037C19.4199 18 20 17.4591 20 16.7912V9.9011C20 9.23324 19.4199 8.69231 18.7037 8.69231ZM18.8333 16.7912C18.8333 16.8577 18.775 16.9121 18.7037 16.9121H7.2963C7.225 16.9121 7.16667 16.8577 7.16667 16.7912V9.9011C7.16667 9.83462 7.225 9.78022 7.2963 9.78022H10.3215L10.5986 9.05797L10.9697 8.08791H15.0287L15.3998 9.05797L15.6769 9.78022H18.7037C18.775 9.78022 18.8333 9.83462 18.8333 9.9011V16.7912ZM13 10.7473C11.5676 10.7473 10.4074 11.8291 10.4074 13.1648C10.4074 14.5005 11.5676 15.5824 13 15.5824C14.4324 15.5824 15.5926 14.5005 15.5926 13.1648C15.5926 11.8291 14.4324 10.7473 13 10.7473ZM13 14.6154C12.1412 14.6154 11.4444 13.9657 11.4444 13.1648C11.4444 12.364 12.1412 11.7143 13 11.7143C13.8588 11.7143 14.5556 12.364 14.5556 13.1648C14.5556 13.9657 13.8588 14.6154 13 14.6154Z" fill="white"/>
</svg>
