<svg width="26" height="34" viewBox="0 0 26 34" fill="none" xmlns="http://www.w3.org/2000/svg">
<path d="M11.0405 31.9539L11.0414 31.9552C11.9842 33.3482 14.0157 33.3483 14.9586 31.9553L14.9595 31.9539C16.4204 29.788 17.6788 27.9543 18.7593 26.3799C20.7334 23.5036 22.1135 21.4926 23.0489 19.9019C23.7849 18.6502 24.2822 17.6009 24.589 16.5412C24.898 15.4743 25 14.445 25 13.25C25 6.5058 19.6485 1 13 1C6.3515 1 1 6.5058 1 13.25C1 14.445 1.10201 15.4743 1.41096 16.5412C1.71781 17.6009 2.21508 18.6502 2.95112 19.9019C3.88647 21.4926 5.26663 23.5036 7.24069 26.3799C8.3212 27.9543 9.57964 29.788 11.0405 31.9539Z" fill="#4286BA" stroke="white" stroke-width="2"/>
<path d="M10.0687 16.1216C9.22329 17.1522 8.71484 18.3762 8.71484 19.2227C8.71484 19.5127 8.87856 19.8184 9.24978 20.0724C9.62136 20.3267 10.1685 20.5 10.8125 20.5C11.2765 20.5 11.5806 20.4009 11.8951 20.2972C11.8951 20.2972 11.8951 20.2972 11.8951 20.2972L11.9047 20.294C12.2046 20.1952 12.524 20.0898 13 20.0898C13.4761 20.0898 13.7954 20.1952 14.0953 20.294L14.1049 20.2972L10.0687 16.1216ZM10.0687 16.1216C10.9158 15.089 11.9845 14.3906 13 14.3906M10.0687 16.1216L13 14.3906M13 14.3906C14.0155 14.3906 15.0842 15.089 15.9313 16.1216C16.7767 17.1522 17.2852 18.3763 17.2852 19.2227C17.2852 19.5127 17.1214 19.8184 16.7502 20.0724C16.3786 20.3267 15.8315 20.5 15.1875 20.5C14.7235 20.5 14.4195 20.4009 14.1049 20.2972L13 14.3906Z" stroke="white"/>
<path d="M8.98828 10.1445C8.98828 9.34253 9.19402 8.65524 9.50124 8.18417C9.80939 7.71167 10.1836 7.5 10.5391 7.5C10.8945 7.5 11.2687 7.71167 11.5769 8.18417C11.8841 8.65524 12.0898 9.34253 12.0898 10.1445C12.0898 10.9465 11.8841 11.6338 11.5769 12.1049C11.2687 12.5774 10.8945 12.7891 10.5391 12.7891C10.1836 12.7891 9.80939 12.5774 9.50124 12.1049C9.19402 11.6338 8.98828 10.9465 8.98828 10.1445Z" stroke="white"/>
<path d="M13.9102 10.1445C13.9102 9.34253 14.1159 8.65524 14.4231 8.18417C14.7313 7.71167 15.1055 7.5 15.4609 7.5C15.8164 7.5 16.1906 7.71167 16.4988 8.18417C16.806 8.65524 17.0117 9.34253 17.0117 10.1445C17.0117 10.9465 16.806 11.6338 16.4988 12.1049C16.1906 12.5774 15.8164 12.7891 15.4609 12.7891C15.1055 12.7891 14.7313 12.5774 14.4231 12.1049C14.1159 11.6338 13.9102 10.9465 13.9102 10.1445Z" stroke="white"/>
<path d="M8.53042 13.6282L8.53042 13.6282C7.98848 12.6975 7.24451 12.579 6.88368 12.7862L6.88366 12.7862C6.69368 12.8952 6.54819 13.1087 6.5096 13.4361C6.47069 13.7662 6.54736 14.192 6.79485 14.6379M8.53042 13.6282L6.79485 14.6379M8.53042 13.6282C9.06327 14.5433 8.78703 15.2669 8.43395 15.4725L8.53042 13.6282ZM6.79485 14.6379C7.30028 15.5486 8.09441 15.6701 8.43393 15.4725L6.79485 14.6379Z" stroke="white"/>
<path d="M17.469 13.6282L17.469 13.6282C18.0109 12.6975 18.7549 12.579 19.1157 12.7862C19.3057 12.8952 19.4512 13.1087 19.4898 13.4361C19.5287 13.7662 19.452 14.1919 19.2045 14.6379L19.2045 14.6379C18.6991 15.5487 17.905 15.6702 17.5655 15.4725C17.2124 15.267 16.9361 14.5433 17.469 13.6282Z" stroke="white"/>
</svg>
