<svg width="20" height="19" viewBox="0 0 20 19" xmlns="http://www.w3.org/2000/svg">
<path d="M9.90822 12.0479C10.5896 12.0479 11.243 11.7773 11.7247 11.2955C12.2065 10.8137 12.4772 10.1603 12.4772 9.47897C12.4772 9.40374 12.4737 9.32919 12.4673 9.25556L9.68482 12.0381C9.75844 12.0445 9.83276 12.0479 9.90822 12.0479ZM18.4114 1.53266L17.4316 0.553702C17.3972 0.519316 17.3505 0.5 17.3019 0.5C17.2532 0.5 17.2066 0.519316 17.1722 0.553702L14.6647 3.06187C13.2814 2.35495 11.7265 2.00149 9.99997 2.00149C5.59147 2.00149 2.3023 4.29749 0.132451 8.88949C0.0452334 9.07417 0 9.27588 0 9.48012C0 9.68436 0.0452334 9.88606 0.132451 10.0707C0.999471 11.897 2.04349 13.3608 3.26451 14.462L0.837994 16.8876C0.803608 16.922 0.784292 16.9687 0.784292 17.0173C0.784292 17.066 0.803608 17.1126 0.837994 17.1471L1.81718 18.1262C1.85159 18.1606 1.89824 18.1799 1.94689 18.1799C1.99553 18.1799 2.04219 18.1606 2.0766 18.1262L18.4114 1.7923C18.4285 1.77526 18.442 1.75502 18.4513 1.73275C18.4605 1.71047 18.4653 1.68659 18.4653 1.66248C18.4653 1.63837 18.4605 1.61449 18.4513 1.59221C18.442 1.56994 18.4285 1.5497 18.4114 1.53266ZM5.8713 9.47897C5.87124 8.7817 6.05178 8.09629 6.39534 7.48954C6.7389 6.88278 7.23376 6.37535 7.83172 6.01669C8.42967 5.65802 9.11033 5.46036 9.80739 5.44294C10.5044 5.42552 11.1941 5.58895 11.8092 5.9173L10.694 7.0325C10.2443 6.88849 9.76357 6.87115 9.30461 6.98238C8.84565 7.0936 8.4262 7.32909 8.09227 7.66302C7.75835 7.99695 7.52285 8.4164 7.41163 8.87536C7.3004 9.33432 7.31775 9.81504 7.46176 10.2648L6.34656 11.38C6.0336 10.7953 5.87033 10.1422 5.8713 9.47897Z" />
<path d="M19.8673 8.8873C19.0599 7.1869 18.0989 5.80035 16.9843 4.72766L13.6782 8.03404C13.9569 8.76255 14.0186 9.55618 13.856 10.319C13.6934 11.0819 13.3134 11.7814 12.7618 12.3329C12.2103 12.8845 11.5108 13.2645 10.748 13.4271C9.98512 13.5897 9.19149 13.5279 8.46298 13.2492L5.65869 16.0535C6.95968 16.6555 8.4067 16.9566 9.99976 16.9566C14.4083 16.9566 17.6974 14.6606 19.8673 10.0686C19.9545 9.88388 19.9998 9.68217 19.9998 9.47793C19.9998 9.27368 19.9545 9.07197 19.8673 8.8873Z" />
</svg>
