<svg width="12" height="15" viewBox="0 0 12 15" xmlns="http://www.w3.org/2000/svg">
<path d="M10.245 4.38882L6 0L1.755 4.38882C0.635124 5.55236 0.00435306 7.12697 0 8.76986C0 10.3234 0.585 11.9624 1.755 13.1742C2.31174 13.7529 2.9733 14.2121 3.70176 14.5254C4.43022 14.8387 5.21123 15 6 15C6.78877 15 7.56978 14.8387 8.29824 14.5254C9.0267 14.2121 9.68826 13.7529 10.245 13.1742C11.415 11.9624 12 10.3234 12 8.76986C12 7.2163 11.415 5.60059 10.245 4.38882ZM1.5 9.0495C1.5075 7.49594 1.965 6.50943 2.82 5.63167L6 2.2682L9.18 5.6705C10.035 6.5405 10.4925 7.49594 10.5 9.0495H1.5Z" />
</svg>
