<svg width="21" height="15" viewBox="0 0 21 15" xmlns="http://www.w3.org/2000/svg">
<path d="M7.36138 7.5C7.36138 8.18338 7.63285 8.83877 8.11607 9.32199C8.59929 9.80522 9.25468 10.0767 9.93806 10.0767C10.6214 10.0767 11.2768 9.80522 11.7601 9.32199C12.2433 8.83877 12.5148 8.18338 12.5148 7.5C12.5148 6.81662 12.2433 6.16123 11.7601 5.67801C11.2768 5.19478 10.6214 4.92331 9.93806 4.92331C9.25468 4.92331 8.59929 5.19478 8.11607 5.67801C7.63285 6.16123 7.36138 6.81662 7.36138 7.5ZM19.9273 6.90644C17.7463 2.31212 14.4496 0 10.0301 0C5.60831 0 2.31383 2.31212 0.13285 6.90874C0.0453696 7.09398 0 7.29629 0 7.50115C0 7.70601 0.0453696 7.90832 0.13285 8.09356C2.31383 12.6879 5.61061 15 10.0301 15C14.4519 15 17.7463 12.6879 19.9273 8.09126C20.1045 7.71856 20.1045 7.28604 19.9273 6.90644ZM9.93806 11.5491C7.70187 11.5491 5.88898 9.7362 5.88898 7.5C5.88898 5.2638 7.70187 3.45092 9.93806 3.45092C12.1743 3.45092 13.9871 5.2638 13.9871 7.5C13.9871 9.7362 12.1743 11.5491 9.93806 11.5491Z" />
</svg>
