<svg width="25" height="25" viewBox="0 0 25 25" xmlns="http://www.w3.org/2000/svg">
<path d="M1 2.25H6.25V0.25C6.25 0.1125 6.3625 0 6.5 0H8.25C8.3875 0 8.5 0.1125 8.5 0.25V2.25H16.5V0.25C16.5 0.1125 16.6125 0 16.75 0H18.5C18.6375 0 18.75 0.1125 18.75 0.25V2.25H24C24.5531 2.25 25 2.69688 25 3.25V24C25 24.5531 24.5531 25 24 25H1C0.446875 25 0 24.5531 0 24V3.25C0 2.69688 0.446875 2.25 1 2.25ZM2.25 22.75H22.75V10.875H2.25V22.75ZM22.75 8.75V4.5H18.75V6C18.75 6.1375 18.6375 6.25 18.5 6.25H16.75C16.6125 6.25 16.5 6.1375 16.5 6V4.5H8.5V6C8.5 6.1375 8.3875 6.25 8.25 6.25H6.5C6.3625 6.25 6.25 6.1375 6.25 6V4.5H2.25V8.75H22.75Z" fill="#314057"/>
</svg>
